<svg width="231" height="178" viewBox="0 0 231 178" fill="none" xmlns="http://www.w3.org/2000/svg">
<path opacity="0.45" d="M111.127 177.408C170.095 177.408 217.898 172.817 217.898 167.154C217.898 161.491 170.095 156.901 111.127 156.901C52.1597 156.901 4.35706 161.491 4.35706 167.154C4.35706 172.817 52.1597 177.408 111.127 177.408Z" fill="#E6E6E6"/>
<path opacity="0.3" d="M160.048 12.9041C193.782 20.7336 220.453 45.4301 228.259 77.2512C234.075 100.91 228.972 125.266 189.84 134.172C105.226 153.354 13.8438 147.019 2.89339 108.662C-8.05701 70.3046 12.264 4.49385 60.6424 0.420365C88.1888 -1.90292 129.535 5.84135 160.048 12.9041Z" fill="#E6E6E6"/>
<path d="M151.591 96.9525L128.776 79.8067C123.979 76.2041 118.142 74.2557 112.142 74.254H54.0598C47.898 74.2387 41.8294 75.7586 36.4022 78.6763C30.975 81.5941 26.3601 85.8179 22.9743 90.9662C13.5805 105.309 5.16247 127.178 18.7304 149.714H207.342V130.144C207.34 126.081 205.961 122.137 203.429 118.959C200.897 115.78 197.363 113.553 193.402 112.642C180.338 109.614 161.318 104.255 151.591 96.9525Z" fill="#E6E6E6"/>
<path d="M13.9909 149.722H208.248C209.557 149.722 210.618 148.661 210.618 147.352V141.01C210.618 139.701 209.557 138.64 208.248 138.64H13.9909C12.6821 138.64 11.6212 139.701 11.6212 141.01V147.352C11.6212 148.661 12.6821 149.722 13.9909 149.722Z" fill="#E6E6E6"/>
<path opacity="0.46" d="M13.9909 149.722H208.248C209.557 149.722 210.618 148.661 210.618 147.352V141.01C210.618 139.701 209.557 138.64 208.248 138.64H13.9909C12.6821 138.64 11.6212 139.701 11.6212 141.01V147.352C11.6212 148.661 12.6821 149.722 13.9909 149.722Z" fill="white"/>
<path d="M33.0186 165.52C42.6248 165.52 50.4122 157.733 50.4122 148.127C50.4122 138.52 42.6248 130.733 33.0186 130.733C23.4123 130.733 15.6249 138.52 15.6249 148.127C15.6249 157.733 23.4123 165.52 33.0186 165.52Z" fill="#C1C1C1"/>
<path d="M33.0186 158.225C38.5959 158.225 43.1171 153.704 43.1171 148.127C43.1171 142.55 38.5959 138.028 33.0186 138.028C27.4413 138.028 22.9201 142.55 22.9201 148.127C22.9201 153.704 27.4413 158.225 33.0186 158.225Z" fill="white"/>
<path d="M154.209 148.127C154.209 151.567 155.229 154.93 157.14 157.79C159.051 160.65 161.768 162.88 164.946 164.196C168.124 165.513 171.622 165.857 174.996 165.186C178.37 164.515 181.469 162.858 183.901 160.426C186.334 157.993 187.991 154.894 188.662 151.52C189.333 148.146 188.988 144.649 187.672 141.47C186.355 138.292 184.126 135.576 181.266 133.664C178.405 131.753 175.042 130.733 171.602 130.733C169.317 130.73 167.054 131.178 164.942 132.051C162.831 132.924 160.912 134.205 159.296 135.821C157.681 137.436 156.399 139.355 155.526 141.467C154.653 143.578 154.206 145.842 154.209 148.127Z" fill="#C1C1C1"/>
<path d="M171.602 158.225C177.18 158.225 181.701 153.704 181.701 148.127C181.701 142.55 177.18 138.028 171.602 138.028C166.025 138.028 161.504 142.55 161.504 148.127C161.504 153.704 166.025 158.225 171.602 158.225Z" fill="white"/>
<path d="M124.052 85.6461L140.912 101.777C141.333 102.179 141.624 102.698 141.747 103.267C141.87 103.835 141.82 104.428 141.604 104.968C141.387 105.508 141.013 105.971 140.531 106.297C140.049 106.623 139.48 106.796 138.898 106.796H44.9215C44.0782 106.795 43.2471 106.594 42.4972 106.208C41.7473 105.822 41.1002 105.263 40.6096 104.577C40.119 103.891 39.799 103.098 39.6762 102.264C39.5533 101.429 39.6312 100.578 39.9032 99.7794L43.334 89.7119C44.0871 87.4944 45.5164 85.5688 47.421 84.206C49.3256 82.8432 51.6094 82.1118 53.9513 82.1148H115.255C118.532 82.1179 121.683 83.3825 124.052 85.6461Z" fill="#C1C1C1"/>
<path d="M34.7378 79.6289C34.7378 79.6289 39.1366 98.7495 14.1768 109.057C14.1768 109.088 18.4052 88.225 34.7378 79.6289Z" fill="#C1C1C1"/>
<path d="M92.8663 79.6289L94.7326 111.984H77.9043L83.3253 79.6289H92.8663Z" fill="#E6E6E6"/>
<path d="M129.822 107.485H138.588C140.748 107.485 142.499 105.734 142.499 103.574V102.319C142.499 100.16 140.748 98.4086 138.588 98.4086H129.822C127.662 98.4086 125.911 100.16 125.911 102.319V103.574C125.911 105.734 127.662 107.485 129.822 107.485Z" fill="#E6E6E6"/>
<path opacity="0.46" d="M129.822 107.485H138.588C140.748 107.485 142.499 105.734 142.499 103.574V102.319C142.499 100.16 140.748 98.4086 138.588 98.4086H129.822C127.662 98.4086 125.911 100.16 125.911 102.319V103.574C125.911 105.734 127.662 107.485 129.822 107.485Z" fill="white"/>
<path d="M203.71 119.318H190.32C189.929 119.319 189.545 119.425 189.208 119.625C188.872 119.825 188.595 120.111 188.408 120.455C188.22 120.799 188.128 121.186 188.142 121.578C188.155 121.969 188.274 122.349 188.485 122.679L192.055 128.247C192.545 129.008 193.218 129.634 194.012 130.068C194.806 130.502 195.696 130.731 196.601 130.733H207.342V129.323C207.342 125.666 206.057 122.124 203.71 119.318Z" fill="white"/>
<path d="M74.4891 72.3335H81.2731C81.6572 72.3335 82.0256 72.4861 82.2971 72.7577C82.5687 73.0292 82.7213 73.3976 82.7213 73.7817V74.2618H73.041V73.7817C73.041 73.3976 73.1935 73.0292 73.4651 72.7577C73.7367 72.4861 74.1051 72.3335 74.4891 72.3335Z" fill="#C1C1C1"/>
<path d="M78.3148 58.1772C78.6968 58.1772 79.0632 58.329 79.3333 58.5991C79.6034 58.8693 79.7552 59.2357 79.7552 59.6177L79.4299 72.3338H76.5491L76.8743 59.6177C76.8743 59.4285 76.9116 59.2412 76.984 59.0664C77.0564 58.8917 77.1625 58.7329 77.2962 58.5991C77.43 58.4654 77.5888 58.3593 77.7635 58.2869C77.9383 58.2145 78.1256 58.1772 78.3148 58.1772Z" fill="#E6E6E6"/>
<path d="M148.493 25.4033C148.449 27.2026 148.55 29.0025 148.795 30.7856C149.57 35.6103 147.51 33.7981 146.472 33.1089L145.411 25.8447L148.493 25.4033Z" fill="#24285B"/>
<path d="M146.929 50.3863C145.915 48.8374 143.909 44.8414 144.606 38.4756L139.433 38.7854C139.433 38.7854 137.497 48.2721 135.011 50.3321L135.057 50.3863H146.929Z" fill="#F4A28C"/>
<path opacity="0.09" d="M146.929 50.3863C145.915 48.8374 143.909 44.8414 144.606 38.4756L139.433 38.7854C139.433 38.7854 137.497 48.2721 135.011 50.3321L135.057 50.3863H146.929Z" fill="black"/>
<path d="M136.467 30.7933C136.467 30.7933 135.266 42.2393 141.26 43.3777C147.254 44.5162 146.642 31.2812 146.642 31.2812C146.642 31.2812 146.604 24.3656 143.103 23.5369C139.603 22.7083 135.746 22.4837 136.467 30.7933Z" fill="#F4A28C"/>
<path d="M136.374 33.4572C136.374 33.4572 133.276 32.4891 133.446 34.0922C133.617 35.6953 133.075 37.8249 136.66 36.8879L136.374 33.4572Z" fill="#F4A28C"/>
<path d="M146.472 33.2948C146.472 33.2948 149.57 32.4429 149.384 34.0692C149.198 35.6955 149.624 37.8097 146.069 36.7487L146.472 33.2948Z" fill="#F4A28C"/>
<path d="M136.374 33.4575C136.81 31.1597 137.371 28.8873 138.054 26.6503C139.208 26.9988 141.361 28.1605 142.561 28.1992C143.762 28.2379 147.278 28.3308 147.897 26.9291C147.952 26.786 147.975 26.6329 147.967 26.48C147.956 25.8143 147.803 25.1586 147.517 24.5573C147.231 23.9561 146.819 23.4233 146.31 22.995C145.233 22.0812 143.909 21.9651 142.67 21.4462C141.646 20.9614 140.497 20.8039 139.38 20.9951C138.263 21.1863 137.232 21.717 136.428 22.5149C133.888 25.1944 134.213 29.9416 134.747 33.2717L136.374 33.4575Z" fill="#24285B"/>
<path d="M118.771 112.023C118.771 112.023 124.633 114.989 122.387 118.412C120.142 121.835 115.278 115.214 115.278 115.214L118.771 112.023Z" fill="#F4A28C"/>
<path d="M132.168 53.337C132.327 52.7435 132.326 52.1187 132.166 51.5255C132.007 50.9323 131.694 50.3916 131.259 49.9576C130.824 49.5236 130.283 49.2117 129.69 49.0531C129.096 48.8946 128.471 48.8951 127.878 49.0544C116.767 52.1084 107.011 58.8238 100.192 68.1131C98.9688 69.7626 97.8071 71.3734 96.7152 72.93C93.0875 78.0998 91.6156 84.4792 92.6117 90.7159C93.6078 96.9525 96.9934 102.556 102.051 106.339L114.659 115.81L119.654 111.249L109.532 101.568C108.232 100.331 107.196 98.8429 106.489 97.1934C105.781 95.544 105.416 93.7679 105.416 91.9732C105.416 90.1784 105.781 88.4023 106.489 86.7529C107.196 85.1034 108.232 83.615 109.532 82.378L129.404 63.5517L132.168 53.337Z" fill="#68E1FD"/>
<path opacity="0.46" d="M132.168 53.337C132.327 52.7435 132.326 52.1187 132.166 51.5255C132.007 50.9323 131.694 50.3916 131.259 49.9576C130.824 49.5236 130.283 49.2117 129.69 49.0531C129.096 48.8946 128.471 48.8951 127.878 49.0544C116.767 52.1084 107.011 58.8238 100.192 68.1131C98.9688 69.7626 97.8071 71.3734 96.7152 72.93C93.0875 78.0998 91.6156 84.4792 92.6117 90.7159C93.6078 96.9525 96.9934 102.556 102.051 106.339L114.659 115.81L119.654 111.249L109.532 101.568C108.232 100.331 107.196 98.8429 106.489 97.1934C105.781 95.544 105.416 93.7679 105.416 91.9732C105.416 90.1784 105.781 88.4023 106.489 86.7529C107.196 85.1034 108.232 83.615 109.532 82.378L129.404 63.5517L132.168 53.337Z" fill="white"/>
<path d="M142.817 38.5298L141.222 39.5133C141.132 39.5708 141.058 39.6499 141.007 39.7432C140.956 39.8366 140.93 39.9413 140.93 40.0477C140.93 40.1541 140.956 40.2587 141.007 40.3521C141.058 40.4455 141.132 40.5245 141.222 40.582L142.499 41.4649L142.817 38.5298Z" fill="#F4A28C"/>
<path d="M128.219 166.798C128.219 166.798 127.166 169.718 124.533 169.943C121.9 170.167 121.203 172.746 123.58 173.412C125.958 174.078 132.099 171.042 132.099 171.042L131.928 167.232L128.219 166.798Z" fill="#68E1FD"/>
<path d="M163.92 166.798C163.92 166.798 164.965 169.718 167.606 169.943C170.247 170.167 170.928 172.746 168.559 173.412C166.189 174.078 160.04 171.042 160.04 171.042L160.21 167.232L163.92 166.798Z" fill="#68E1FD"/>
<path d="M132.532 48.3341C144.273 48.5431 155.862 51.0203 166.661 55.6292C168.317 56.3304 169.812 57.3634 171.053 58.6646C172.295 59.9657 173.256 61.5073 173.879 63.1944C174.502 64.8815 174.772 66.6782 174.673 68.4738C174.575 70.2694 174.109 72.0258 173.306 73.6346L154.72 110.675L120.289 108.639C120.289 108.639 114.024 87.8221 115.286 64.2718C115.536 59.8985 117.473 55.7928 120.69 52.8198C123.908 49.8469 128.153 48.2387 132.532 48.3341Z" fill="#68E1FD"/>
<path d="M134.492 48.4346C134.492 48.4346 136.939 81.5955 137.38 93.0803L146.883 49.7279L134.492 48.4346Z" fill="white"/>
<path d="M140.106 49.186L136.281 73.7121L137.396 93.0341L141.539 74.0839L140.966 49.6894L140.106 49.186Z" fill="#24285B"/>
<path d="M154.735 110.675L165.027 167.325H159.885L146.983 136.572C142.418 125.679 134.367 116.608 124.091 110.784L120.304 108.639L154.735 110.675Z" fill="#24285B"/>
<path d="M120.304 108.639L125.625 167.325H132.455C132.455 167.325 130.86 123.182 143.196 113.765L120.304 108.639Z" fill="#24285B"/>
<path opacity="0.08" d="M157.02 58.355C157.02 58.355 148.222 64.0083 150.995 81.3864C151.803 86.4688 151.476 91.6672 150.037 96.6081C148.597 101.549 146.081 106.11 142.67 109.963L154.735 110.675C154.735 110.675 162.48 94.5439 164.539 91.121C166.599 87.698 157.02 58.355 157.02 58.355Z" fill="black"/>
<path d="M155.231 63.6136C155.231 55.7454 165.035 52.1056 170.301 57.9603C174.898 62.9427 177.83 69.2332 178.688 75.958C180.779 93.2509 178.479 131.004 178.479 131.004H172.214C172.214 131.004 167.986 93.2664 158.762 75.958C156.176 71.1255 155.246 67.0211 155.231 63.6136Z" fill="#68E1FD"/>
<path opacity="0.46" d="M155.231 63.6136C155.231 55.7454 165.035 52.1056 170.301 57.9603C174.898 62.9427 177.83 69.2332 178.688 75.958C180.779 93.2509 178.479 131.004 178.479 131.004H172.214C172.214 131.004 167.986 93.2664 158.762 75.958C156.176 71.1255 155.246 67.0211 155.231 63.6136Z" fill="white"/>
<path d="M177.387 131.004C177.387 131.004 179.269 137.2 176.799 137.2C174.328 137.2 171.378 138.385 173.236 131.004H177.387Z" fill="#F4A28C"/>
<path d="M134.329 26.3094C133.888 25.2045 133.571 24.0539 133.384 22.8787C133.253 21.4925 137.419 17.1479 141.539 17.1479C144.397 17.1479 149.175 20.842 149.601 21.7093C150.027 22.5767 148.826 25.4188 148.826 25.4188C146.752 26.9471 144.281 27.8441 141.709 28.0021C139.137 28.1601 136.575 27.5723 134.329 26.3094Z" fill="#FFD200"/>
<path opacity="0.46" d="M134.329 26.3094C133.888 25.2045 133.571 24.0539 133.384 22.8787C133.253 21.4925 137.419 17.1479 141.539 17.1479C144.397 17.1479 149.175 20.842 149.601 21.7093C150.027 22.5767 148.826 25.4188 148.826 25.4188C146.752 26.9471 144.281 27.8441 141.709 28.0021C139.137 28.1601 136.575 27.5723 134.329 26.3094Z" fill="white"/>
<path d="M134.182 25.4343C134.182 25.4343 133.253 28.1602 136.962 29.7633C140.672 31.3664 145.187 30.9869 146.689 29.3219C147.652 28.1909 148.369 26.8724 148.795 25.4497C148.795 25.4497 142.778 22.6618 134.182 25.4343Z" fill="#FFD200"/>
<path d="M134.492 48.4346C134.492 48.4346 139.735 48.6669 140.95 48.8528C142.166 49.0386 146.96 49.24 146.844 49.7666C146.728 50.2932 143.522 53.0889 142.197 52.7094C140.873 52.3299 140.61 50.5488 140.61 50.5488C140.61 50.5488 139.696 52.8178 138.108 52.0511C136.521 51.2845 134.492 48.4346 134.492 48.4346Z" fill="#68E1FD"/>
<path opacity="0.46" d="M134.492 48.4346C134.492 48.4346 139.735 48.6669 140.95 48.8528C142.166 49.0386 146.96 49.24 146.844 49.7666C146.728 50.2932 143.522 53.0889 142.197 52.7094C140.873 52.3299 140.61 50.5488 140.61 50.5488C140.61 50.5488 139.696 52.8178 138.108 52.0511C136.521 51.2845 134.492 48.4346 134.492 48.4346Z" fill="white"/>
</svg>
