<svg width="203" height="159" viewBox="0 0 203 159" fill="none" xmlns="http://www.w3.org/2000/svg">
<path opacity="0.46" d="M6.36974 132.574H200.627C201.936 132.574 202.997 131.513 202.997 130.204V123.862C202.997 122.553 201.936 121.492 200.627 121.492H6.36974C5.06096 121.492 4 122.553 4 123.862V130.204C4 131.513 5.06096 132.574 6.36974 132.574Z" fill="white"/>
<path d="M25.3974 148.372C35.0036 148.372 42.791 140.585 42.791 130.979C42.791 121.372 35.0036 113.585 25.3974 113.585C15.7912 113.585 8.00378 121.372 8.00378 130.979C8.00378 140.585 15.7912 148.372 25.3974 148.372Z" fill="#C1C1C1"/>
<path d="M25.3974 141.077C30.9747 141.077 35.496 136.556 35.496 130.979C35.496 125.402 30.9747 120.88 25.3974 120.88C19.8202 120.88 15.2989 125.402 15.2989 130.979C15.2989 136.556 19.8202 141.077 25.3974 141.077Z" fill="white"/>
<path d="M146.587 130.979C146.587 134.419 147.608 137.782 149.519 140.642C151.43 143.502 154.147 145.732 157.325 147.048C160.503 148.365 164 148.709 167.374 148.038C170.748 147.367 173.848 145.71 176.28 143.278C178.713 140.845 180.369 137.746 181.041 134.372C181.712 130.998 181.367 127.501 180.051 124.322C178.734 121.144 176.505 118.428 173.644 116.516C170.784 114.605 167.421 113.585 163.981 113.585C161.696 113.582 159.433 114.03 157.321 114.903C155.21 115.776 153.291 117.057 151.675 118.673C150.059 120.288 148.778 122.207 147.905 124.319C147.032 126.43 146.584 128.694 146.587 130.979Z" fill="#C1C1C1"/>
<path d="M163.981 141.077C169.558 141.077 174.08 136.556 174.08 130.979C174.08 125.402 169.558 120.88 163.981 120.88C158.404 120.88 153.883 125.402 153.883 130.979C153.883 136.556 158.404 141.077 163.981 141.077Z" fill="white"/>
<path d="M116.431 68.4982L133.291 84.6295C133.712 85.0313 134.002 85.55 134.126 86.1188C134.249 86.6875 134.199 87.2801 133.983 87.8202C133.766 88.3603 133.392 88.8231 132.91 89.1489C132.428 89.4746 131.859 89.6484 131.277 89.6478H37.3003C36.457 89.6473 35.6259 89.4458 34.876 89.0599C34.1261 88.6741 33.479 88.115 32.9884 87.429C32.4978 86.7431 32.1778 85.95 32.055 85.1157C31.9321 84.2813 32.01 83.4297 32.2821 82.6315L35.7128 72.5639C36.4659 70.3464 37.8952 68.4208 39.7998 67.058C41.7044 65.6953 43.9883 64.9639 46.3302 64.9668H107.634C110.911 64.97 114.061 66.2345 116.431 68.4982Z" fill="#C1C1C1"/>
<path d="M27.1166 62.4805C27.1166 62.4805 31.5154 81.6011 6.5556 91.9087C6.5556 91.9397 10.784 71.0766 27.1166 62.4805Z" fill="#C1C1C1"/>
<path d="M85.2451 62.4805L87.1115 94.836H70.2832L75.7042 62.4805H85.2451Z" fill="#E6E6E6"/>
<path d="M122.201 90.3369H130.967C133.127 90.3369 134.878 88.586 134.878 86.4261V85.1715C134.878 83.0116 133.127 81.2606 130.967 81.2606H122.201C120.041 81.2606 118.29 83.0116 118.29 85.1715V86.4261C118.29 88.586 120.041 90.3369 122.201 90.3369Z" fill="#E6E6E6"/>
<path opacity="0.46" d="M122.201 90.3369H130.967C133.127 90.3369 134.878 88.586 134.878 86.4261V85.1715C134.878 83.0116 133.127 81.2606 130.967 81.2606H122.201C120.041 81.2606 118.29 83.0116 118.29 85.1715V86.4261C118.29 88.586 120.041 90.3369 122.201 90.3369Z" fill="white"/>
<path d="M196.089 102.17H182.699C182.308 102.171 181.923 102.277 181.587 102.477C181.25 102.677 180.974 102.964 180.786 103.307C180.599 103.651 180.507 104.038 180.52 104.43C180.534 104.821 180.653 105.201 180.864 105.531L184.434 111.099C184.924 111.86 185.596 112.486 186.39 112.92C187.184 113.354 188.075 113.583 188.98 113.585H199.721V112.176C199.721 108.518 198.435 104.976 196.089 102.17Z" fill="white"/>
<path d="M66.868 55.1855H73.652C74.036 55.1855 74.4044 55.3381 74.676 55.6097C74.9476 55.8813 75.1001 56.2496 75.1001 56.6337V57.1139H65.4198V56.6337C65.4198 56.2496 65.5724 55.8813 65.844 55.6097C66.1155 55.3381 66.4839 55.1855 66.868 55.1855Z" fill="#C1C1C1"/>
<path d="M70.6936 41.0293C71.0756 41.0293 71.442 41.1811 71.7122 41.4512C71.9823 41.7213 72.1341 42.0877 72.1341 42.4697L71.8088 55.1858H68.9279L69.2532 42.4697C69.2532 42.2806 69.2904 42.0933 69.3628 41.9185C69.4352 41.7437 69.5413 41.5849 69.6751 41.4512C69.8088 41.3174 69.9676 41.2113 70.1424 41.1389C70.3172 41.0666 70.5045 41.0293 70.6936 41.0293Z" fill="#E6E6E6"/>
<path d="M140.872 8.25537C140.828 10.0547 140.929 11.8546 141.174 13.6376C141.949 18.4623 139.889 16.6502 138.851 15.9609L137.79 8.69679L140.872 8.25537Z" fill="#24285B"/>
<path d="M139.308 33.2383C138.293 31.6895 136.288 27.6934 136.985 21.3276L131.811 21.6374C131.811 21.6374 129.875 31.1241 127.389 33.1841L127.436 33.2383H139.308Z" fill="#F4A28C"/>
<path opacity="0.09" d="M139.308 33.2383C138.293 31.6895 136.288 27.6934 136.985 21.3276L131.811 21.6374C131.811 21.6374 129.875 31.1241 127.389 33.1841L127.436 33.2383H139.308Z" fill="black"/>
<path d="M128.845 13.6454C128.845 13.6454 127.645 25.0914 133.639 26.2298C139.633 27.3682 139.021 14.1332 139.021 14.1332C139.021 14.1332 138.983 7.21762 135.482 6.38898C131.982 5.56034 128.125 5.33576 128.845 13.6454Z" fill="#F4A28C"/>
<path d="M128.752 16.3092C128.752 16.3092 125.655 15.3412 125.825 16.9443C125.995 18.5473 125.453 20.677 129.039 19.7399L128.752 16.3092Z" fill="#F4A28C"/>
<path d="M138.851 16.1468C138.851 16.1468 141.949 15.2949 141.763 16.9212C141.577 18.5475 142.003 20.6617 138.448 19.6008L138.851 16.1468Z" fill="#F4A28C"/>
<path d="M128.752 16.3096C129.189 14.0118 129.75 11.7393 130.433 9.50239C131.587 9.85088 133.74 11.0125 134.94 11.0512C136.14 11.09 139.656 11.1829 140.276 9.78118C140.33 9.638 140.354 9.48497 140.346 9.33201C140.335 8.66631 140.182 8.01063 139.896 7.40937C139.61 6.80812 139.198 6.27533 138.688 5.84709C137.612 4.93327 136.288 4.8171 135.049 4.29824C134.024 3.81344 132.876 3.65593 131.759 3.84716C130.642 4.03838 129.611 4.56904 128.807 5.36694C126.267 8.04646 126.592 12.7937 127.126 16.1237L128.752 16.3096Z" fill="#24285B"/>
<path d="M111.15 94.875C111.15 94.875 117.012 97.8411 114.766 101.264C112.52 104.687 107.657 98.0656 107.657 98.0656L111.15 94.875Z" fill="#F4A28C"/>
<path d="M124.547 36.1891C124.706 35.5955 124.705 34.9708 124.545 34.3776C124.386 33.7844 124.073 33.2436 123.638 32.8096C123.203 32.3757 122.662 32.0637 122.068 31.9052C121.475 31.7467 120.85 31.7471 120.257 31.9065C109.146 34.9605 99.3903 41.6759 92.5712 50.9651C91.3476 52.6146 90.186 54.2255 89.094 55.7821C85.4663 60.9519 83.9945 67.3313 84.9905 73.5679C85.9866 79.8046 89.3723 85.4081 94.4298 89.1908L107.038 98.6621L112.033 94.1007L101.911 84.4204C100.61 83.1834 99.575 81.6949 98.8674 80.0455C98.1599 78.396 97.7951 76.62 97.7951 74.8252C97.7951 73.0304 98.1599 71.2544 98.8674 69.6049C99.575 67.9555 100.61 66.467 101.911 65.2301L121.783 46.4037L124.547 36.1891Z" fill="#68E1FD"/>
<path opacity="0.46" d="M124.547 36.1891C124.706 35.5955 124.705 34.9708 124.545 34.3776C124.386 33.7844 124.073 33.2436 123.638 32.8096C123.203 32.3757 122.662 32.0637 122.068 31.9052C121.475 31.7467 120.85 31.7471 120.257 31.9065C109.146 34.9605 99.3903 41.6759 92.5712 50.9651C91.3476 52.6146 90.186 54.2255 89.094 55.7821C85.4663 60.9519 83.9945 67.3313 84.9905 73.5679C85.9866 79.8046 89.3723 85.4081 94.4298 89.1908L107.038 98.6621L112.033 94.1007L101.911 84.4204C100.61 83.1834 99.575 81.6949 98.8674 80.0455C98.1599 78.396 97.7951 76.62 97.7951 74.8252C97.7951 73.0304 98.1599 71.2544 98.8674 69.6049C99.575 67.9555 100.61 66.467 101.911 65.2301L121.783 46.4037L124.547 36.1891Z" fill="white"/>
<path d="M135.196 21.3818L133.6 22.3654C133.511 22.4228 133.437 22.5019 133.386 22.5953C133.335 22.6886 133.308 22.7933 133.308 22.8997C133.308 23.0061 133.335 23.1108 133.386 23.2042C133.437 23.2975 133.511 23.3766 133.6 23.4341L134.878 24.3169L135.196 21.3818Z" fill="#F4A28C"/>
<path d="M120.598 149.65C120.598 149.65 119.544 152.57 116.911 152.795C114.278 153.019 113.581 155.598 115.959 156.264C118.336 156.93 124.478 153.894 124.478 153.894L124.307 150.084L120.598 149.65Z" fill="#68E1FD"/>
<path d="M156.299 149.65C156.299 149.65 157.344 152.57 159.985 152.795C162.626 153.019 163.307 155.598 160.938 156.264C158.568 156.93 152.419 153.894 152.419 153.894L152.589 150.084L156.299 149.65Z" fill="#68E1FD"/>
<path d="M124.911 31.1861C136.651 31.3952 148.241 33.8723 159.04 38.4812C160.696 39.1824 162.191 40.2155 163.432 41.5166C164.674 42.8177 165.635 44.3594 166.258 46.0465C166.88 47.7335 167.151 49.5303 167.052 51.3259C166.954 53.1215 166.488 54.8778 165.685 56.4867L147.099 93.5275L112.668 91.4908C112.668 91.4908 106.402 70.6742 107.665 47.1238C107.915 42.7505 109.852 38.6449 113.069 35.6719C116.286 32.6989 120.532 31.0907 124.911 31.1861Z" fill="#68E1FD"/>
<path d="M126.871 31.2866C126.871 31.2866 129.318 64.4476 129.759 75.9323L139.261 32.5799L126.871 31.2866Z" fill="white"/>
<path d="M132.485 32.0381L128.659 56.5642L129.775 75.8861L133.918 56.9359L133.345 32.5415L132.485 32.0381Z" fill="#24285B"/>
<path d="M147.114 93.5275L157.406 150.177H152.264L139.362 119.424C134.797 108.531 126.745 99.4605 116.47 93.6359L112.683 91.4907L147.114 93.5275Z" fill="#24285B"/>
<path d="M112.683 91.4907L118.003 150.177H124.834C124.834 150.177 123.239 106.034 135.575 96.6174L112.683 91.4907Z" fill="#24285B"/>
<path opacity="0.08" d="M149.399 41.207C149.399 41.207 140.601 46.8604 143.374 64.2385C144.182 69.3209 143.855 74.5193 142.415 79.4602C140.976 84.401 138.46 88.9618 135.049 92.8148L147.114 93.5273C147.114 93.5273 154.858 77.396 156.918 73.973C158.978 70.5501 149.399 41.207 149.399 41.207Z" fill="black"/>
<path d="M147.61 46.4656C147.61 38.5975 157.414 34.9577 162.68 40.8123C167.277 45.7948 170.209 52.0853 171.067 58.81C173.158 76.103 170.858 113.856 170.858 113.856H164.593C164.593 113.856 160.365 76.1184 151.141 58.81C148.555 53.9776 147.625 49.8731 147.61 46.4656Z" fill="#68E1FD"/>
<path opacity="0.46" d="M147.61 46.4656C147.61 38.5975 157.414 34.9577 162.68 40.8123C167.277 45.7948 170.209 52.0853 171.067 58.81C173.158 76.103 170.858 113.856 170.858 113.856H164.593C164.593 113.856 160.365 76.1184 151.141 58.81C148.555 53.9776 147.625 49.8731 147.61 46.4656Z" fill="white"/>
<path d="M169.766 113.856C169.766 113.856 171.648 120.052 169.177 120.052C166.707 120.052 163.757 121.237 165.615 113.856H169.766Z" fill="#F4A28C"/>
<path d="M126.708 9.16147C126.266 8.05659 125.95 6.9059 125.763 5.73076C125.631 4.34454 129.798 0 133.918 0C136.775 0 141.554 3.69402 141.98 4.56138C142.406 5.42873 141.205 8.27088 141.205 8.27088C139.131 9.79917 136.66 10.6962 134.088 10.8542C131.516 11.0121 128.954 10.4244 126.708 9.16147Z" fill="#FFD200"/>
<path opacity="0.46" d="M126.708 9.16147C126.266 8.05659 125.95 6.9059 125.763 5.73076C125.631 4.34454 129.798 0 133.918 0C136.775 0 141.554 3.69402 141.98 4.56138C142.406 5.42873 141.205 8.27088 141.205 8.27088C139.131 9.79917 136.66 10.6962 134.088 10.8542C131.516 11.0121 128.954 10.4244 126.708 9.16147Z" fill="white"/>
<path d="M126.561 8.2863C126.561 8.2863 125.631 11.0123 129.341 12.6153C133.05 14.2184 137.565 13.8389 139.068 12.1739C140.03 11.043 140.748 9.72442 141.174 8.30179C141.174 8.30179 135.157 5.51385 126.561 8.2863Z" fill="#FFD200"/>
<path d="M126.871 31.2866C126.871 31.2866 132.113 31.5189 133.329 31.7048C134.545 31.8907 139.339 32.092 139.223 32.6186C139.107 33.1452 135.9 35.9409 134.576 35.5615C133.252 35.182 132.989 33.4008 132.989 33.4008C132.989 33.4008 132.075 35.6699 130.487 34.9032C128.9 34.1365 126.871 31.2866 126.871 31.2866Z" fill="#68E1FD"/>
<path opacity="0.46" d="M126.871 31.2866C126.871 31.2866 132.113 31.5189 133.329 31.7048C134.545 31.8907 139.339 32.092 139.223 32.6186C139.107 33.1452 135.9 35.9409 134.576 35.5615C133.252 35.182 132.989 33.4008 132.989 33.4008C132.989 33.4008 132.075 35.6699 130.487 34.9032C128.9 34.1365 126.871 31.2866 126.871 31.2866Z" fill="white"/>
<path d="M87.8217 123.331L71.5795 101.395C71.2452 100.943 70.8094 100.576 70.3072 100.323C69.8049 100.07 69.2503 99.9387 68.688 99.9395H19.6423C19.08 99.9387 18.5253 100.07 18.0231 100.323C17.5208 100.576 17.085 100.943 16.7508 101.395L0.508545 123.331V150.062C0.508545 151.516 1.08631 152.911 2.11473 153.94C3.14316 154.968 4.538 155.546 5.99241 155.546H82.3478C83.8022 155.546 85.1971 154.968 86.2255 153.94C87.2539 152.911 87.8317 151.516 87.8317 150.062L87.8217 123.331Z" fill="#093F68"/>
<path d="M82.3478 156.035H5.98245C4.39582 156.035 2.87417 155.404 1.75225 154.282C0.630331 153.16 4.50924e-05 151.639 4.50924e-05 150.052V123.331C-0.00139775 123.223 0.0318193 123.119 0.0947639 123.032L16.337 101.096C16.7193 100.582 17.2162 100.165 17.7883 99.8763C18.3603 99.5881 18.9917 99.4374 19.6323 99.436H68.678C69.3186 99.4374 69.95 99.5881 70.522 99.8763C71.0941 100.165 71.591 100.582 71.9733 101.096L88.2156 123.032C88.2785 123.119 88.3117 123.223 88.3103 123.331V150.062C88.3077 151.644 87.6789 153.16 86.5616 154.279C85.4443 155.398 83.9293 156.029 82.3478 156.035ZM1.00708 123.495V150.062C1.00708 151.384 1.53232 152.652 2.46725 153.587C3.40218 154.522 4.67022 155.047 5.99242 155.047H82.3478C83.67 155.047 84.9381 154.522 85.873 153.587C86.8079 152.652 87.3332 151.384 87.3332 150.062V123.495L71.1906 101.684C70.9015 101.296 70.5256 100.98 70.0929 100.762C69.6602 100.543 69.1825 100.429 68.698 100.428H19.6423C19.1577 100.429 18.6801 100.543 18.2474 100.762C17.8147 100.98 17.4388 101.296 17.1496 101.684L1.00708 123.495Z" fill="#093F68"/>
<path d="M87.8217 123.331V150.062C87.8217 151.516 87.244 152.911 86.2155 153.94C85.1871 154.968 83.7923 155.546 82.3379 155.546H5.98245C4.52804 155.546 3.13319 154.968 2.10477 153.94C1.07634 152.911 0.498581 151.516 0.498581 150.062V123.331H24.1341L26.3575 134.298C26.5587 135.284 27.0945 136.17 27.874 136.806C28.6535 137.442 29.6289 137.789 30.6349 137.788H57.9745C58.9938 137.787 59.9808 137.431 60.7653 136.78C61.5498 136.129 62.0827 135.225 62.2719 134.224L64.3258 123.301L87.8217 123.331Z" fill="#68E1FD"/>
<path d="M82.3428 156.034H5.98245C4.39582 156.034 2.87417 155.404 1.75225 154.282C0.630332 153.16 4.57764e-05 151.639 4.57764e-05 150.052V123.33C4.57764e-05 123.198 0.0525693 123.071 0.146063 122.978C0.239556 122.884 0.36636 122.832 0.498579 122.832H24.1341C24.2507 122.83 24.3644 122.868 24.4555 122.941C24.5466 123.014 24.6093 123.116 24.6326 123.231L26.8561 134.199C27.033 135.074 27.5067 135.861 28.1971 136.426C28.8875 136.992 29.7522 137.303 30.6449 137.304H57.9845C58.8875 137.304 59.7619 136.987 60.4565 136.41C61.151 135.833 61.6221 135.031 61.7883 134.144L63.8423 123.221C63.8645 123.106 63.9267 123.002 64.0179 122.928C64.1091 122.854 64.2235 122.815 64.3408 122.817H87.8267C87.9589 122.817 88.0857 122.87 88.1792 122.963C88.2727 123.056 88.3252 123.183 88.3252 123.316V150.047C88.3259 150.833 88.1717 151.611 87.8713 152.338C87.5709 153.064 87.1304 153.724 86.5748 154.28C86.0192 154.836 85.3595 155.277 84.6334 155.578C83.9072 155.879 83.1289 156.034 82.3428 156.034ZM1.00708 123.829V150.062C1.00708 151.384 1.53232 152.652 2.46725 153.587C3.40219 154.522 4.67022 155.047 5.99242 155.047H82.3428C83.665 155.047 84.9331 154.522 85.868 153.587C86.8029 152.652 87.3282 151.384 87.3282 150.062V123.829H64.7496L62.7555 134.343C62.5484 135.462 61.9566 136.473 61.0825 137.201C60.2085 137.93 59.1073 138.329 57.9695 138.331H30.6449C29.5223 138.33 28.4348 137.94 27.5664 137.229C26.6979 136.517 26.1018 135.528 25.8789 134.428L23.7253 123.829H1.00708Z" fill="#093F68"/>
<path d="M19.6871 144.653H9.89593C9.76371 144.653 9.63691 144.6 9.54342 144.507C9.44992 144.413 9.3974 144.287 9.3974 144.154C9.3974 144.022 9.44992 143.895 9.54342 143.802C9.63691 143.708 9.76371 143.656 9.89593 143.656H19.6871C19.8194 143.656 19.9462 143.708 20.0397 143.802C20.1331 143.895 20.1857 144.022 20.1857 144.154C20.1857 144.287 20.1331 144.413 20.0397 144.507C19.9462 144.6 19.8194 144.653 19.6871 144.653Z" fill="#093F68"/>
<path d="M26.4672 93.3736C26.3132 93.3728 26.1616 93.3364 26.024 93.2672C25.8865 93.198 25.7669 93.0979 25.6745 92.9748L18.8895 84.0012C18.7302 83.7896 18.6614 83.5234 18.6983 83.2612C18.7353 82.9989 18.8749 82.7621 19.0864 82.6028C19.298 82.4434 19.5641 82.3747 19.8264 82.4116C20.0886 82.4485 20.3255 82.5881 20.4848 82.7997L27.2649 91.7733C27.424 91.9842 27.493 92.2497 27.4565 92.5115C27.4201 92.7732 27.2812 93.0098 27.0704 93.1692C26.8971 93.3014 26.6852 93.3732 26.4672 93.3736Z" fill="#DFEAEF"/>
<path d="M58.5927 93.3739C58.375 93.3718 58.1636 93.3002 57.9895 93.1695C57.7787 93.0101 57.6398 92.7736 57.6034 92.5118C57.5669 92.2501 57.6358 91.9846 57.795 91.7737L64.5801 82.8C64.7426 82.5984 64.9773 82.4679 65.2344 82.4362C65.4914 82.4045 65.7507 82.4741 65.9574 82.6302C66.1641 82.7864 66.3019 83.0168 66.3416 83.2727C66.3814 83.5287 66.32 83.79 66.1704 84.0015L59.3904 92.9751C59.2975 93.0989 59.1771 93.1995 59.0386 93.2687C58.9002 93.3379 58.7475 93.3739 58.5927 93.3739Z" fill="#DFEAEF"/>
<path d="M43.3126 90.3827C43.0482 90.3827 42.7946 90.2776 42.6076 90.0907C42.4206 89.9037 42.3156 89.6501 42.3156 89.3856V76.9971C42.3156 76.7326 42.4206 76.479 42.6076 76.292C42.7946 76.105 43.0482 76 43.3126 76C43.5771 76 43.8307 76.105 44.0177 76.292C44.2047 76.479 44.3097 76.7326 44.3097 76.9971V89.3856C44.3097 89.6501 44.2047 89.9037 44.0177 90.0907C43.8307 90.2776 43.5771 90.3827 43.3126 90.3827Z" fill="#DFEAEF"/>
<path d="M90.7481 140.844H62.0376C60.9665 140.844 60.0983 141.712 60.0983 142.784V155.9C60.0983 156.971 60.9665 157.839 62.0376 157.839H90.7481C91.8192 157.839 92.6874 156.971 92.6874 155.9V142.784C92.6874 141.712 91.8192 140.844 90.7481 140.844Z" fill="#FFBC0E"/>
<path d="M90.7481 158.343H62.0376C61.3914 158.341 60.7721 158.084 60.3152 157.627C59.8583 157.17 59.6011 156.551 59.5997 155.905V142.784C59.6011 142.137 59.8583 141.518 60.3152 141.061C60.7721 140.604 61.3914 140.347 62.0376 140.346H90.7481C91.3943 140.347 92.0136 140.604 92.4705 141.061C92.9274 141.518 93.1846 142.137 93.1859 142.784V155.905C93.1846 156.551 92.9274 157.17 92.4705 157.627C92.0136 158.084 91.3943 158.341 90.7481 158.343ZM62.0376 141.343C61.6555 141.343 61.289 141.495 61.0188 141.765C60.7486 142.035 60.5968 142.401 60.5968 142.784V155.905C60.5968 156.287 60.7486 156.654 61.0188 156.924C61.289 157.194 61.6555 157.346 62.0376 157.346H90.7481C91.1298 157.344 91.4955 157.192 91.7654 156.922C92.0354 156.652 92.1876 156.287 92.1889 155.905V142.784C92.1876 142.402 92.0354 142.036 91.7654 141.766C91.4955 141.496 91.1298 141.344 90.7481 141.343H62.0376Z" fill="#093F68"/>
<path d="M65.0088 145.969H68.8276V147.116H66.2452V148.163H68.683V149.304H66.2452V150.451H68.9672V151.593H65.0088V145.969Z" fill="#093F68"/>
<path d="M69.8097 147.714H70.9563V148.238C70.9965 148.156 71.0505 148.082 71.1159 148.018C71.1862 147.939 71.2687 147.872 71.3601 147.819C71.462 147.758 71.5708 147.709 71.6842 147.674C71.814 147.638 71.9482 147.619 72.083 147.619C72.3322 147.615 72.5786 147.671 72.8009 147.784C73.0142 147.901 73.1812 148.088 73.2745 148.312C73.385 148.09 73.5583 147.904 73.7731 147.779C73.9888 147.679 74.2228 147.625 74.4604 147.62C74.698 147.615 74.9342 147.659 75.154 147.749C75.321 147.832 75.4649 147.956 75.5728 148.108C75.6815 148.269 75.7578 148.451 75.7971 148.641C75.8426 148.856 75.8643 149.075 75.8619 149.294V151.573H74.6704V149.324C74.674 149.162 74.6345 149.002 74.5557 148.861C74.5121 148.794 74.4509 148.74 74.3787 148.706C74.3066 148.672 74.2264 148.658 74.147 148.666C74.0284 148.663 73.9107 148.687 73.803 148.736C73.713 148.776 73.6355 148.84 73.5786 148.921C73.522 149.006 73.4814 149.1 73.459 149.2C73.4343 149.309 73.4226 149.421 73.4241 149.534V151.573H72.2326V149.534C72.2326 149.464 72.2326 149.379 72.2326 149.28C72.2275 149.181 72.2074 149.083 72.1728 148.99C72.1439 148.901 72.0903 148.821 72.0182 148.761C71.9272 148.695 71.8165 148.662 71.7041 148.666C71.5759 148.662 71.4486 148.691 71.3352 148.751C71.2425 148.802 71.1663 148.878 71.1159 148.97C71.0641 149.068 71.0304 149.175 71.0162 149.285C71.0084 149.407 71.0084 149.531 71.0162 149.653V151.573H69.8247L69.8097 147.714Z" fill="#093F68"/>
<path d="M76.8291 147.714H77.9258V148.213C77.9805 148.136 78.0441 148.065 78.1153 148.003C78.1946 147.925 78.2854 147.86 78.3845 147.809C78.4907 147.75 78.6026 147.701 78.7185 147.664C78.8466 147.628 78.9792 147.61 79.1123 147.609C79.3785 147.607 79.6426 147.656 79.8901 147.754C80.1147 147.851 80.318 147.992 80.4883 148.168C80.6568 148.351 80.7872 148.567 80.8722 148.801C80.9644 149.058 81.01 149.33 81.0068 149.604C81.0078 149.866 80.9674 150.127 80.8871 150.376C80.8085 150.613 80.6887 150.834 80.5332 151.029C80.3855 151.22 80.1985 151.376 79.9848 151.488C79.7565 151.604 79.5031 151.662 79.2469 151.658C79.0093 151.661 78.773 151.622 78.549 151.543C78.3363 151.469 78.1517 151.332 78.0206 151.149V153.373H76.8291V147.714ZM77.9258 149.643C77.9136 149.903 78.003 150.157 78.1751 150.351C78.2668 150.443 78.3767 150.515 78.4979 150.561C78.619 150.607 78.7485 150.628 78.878 150.621C79.0076 150.629 79.1375 150.609 79.2587 150.562C79.38 150.516 79.4899 150.444 79.581 150.351C79.742 150.151 79.8297 149.901 79.8297 149.643C79.8297 149.386 79.742 149.136 79.581 148.936C79.4899 148.843 79.38 148.771 79.2587 148.725C79.1375 148.678 79.0076 148.658 78.878 148.666C78.7485 148.659 78.619 148.68 78.4979 148.726C78.3767 148.772 78.2668 148.844 78.1751 148.936C78.0874 149.034 78.0202 149.15 77.9774 149.274C77.9347 149.399 77.9171 149.532 77.9258 149.663V149.643Z" fill="#093F68"/>
<path d="M84.3519 148.711H83.3V149.997C83.2919 150.093 83.2919 150.19 83.3 150.286C83.3058 150.367 83.3296 150.445 83.3698 150.516C83.4106 150.58 83.4696 150.63 83.5393 150.66C83.6357 150.7 83.7393 150.718 83.8434 150.715H84.0977C84.1834 150.707 84.2649 150.674 84.332 150.62V151.617C84.1985 151.666 84.0595 151.698 83.9182 151.712C83.7777 151.73 83.6361 151.739 83.4945 151.737C83.308 151.739 83.122 151.718 82.9411 151.672C82.7815 151.636 82.6308 151.568 82.4974 151.473C82.368 151.379 82.265 151.254 82.1983 151.109C82.1216 150.94 82.0841 150.756 82.0886 150.57V148.711H81.3258V147.714H82.0886V146.572H83.2801V147.714H84.332L84.3519 148.711Z" fill="#093F68"/>
<path d="M87.1786 152.201C87.0988 152.405 87.0191 152.59 86.9443 152.749C86.8802 152.9 86.7851 153.036 86.6651 153.148C86.5418 153.263 86.3933 153.349 86.2314 153.397C86.0072 153.457 85.7754 153.484 85.5434 153.477C85.2404 153.479 84.939 153.432 84.651 153.337L84.8106 152.34C84.9845 152.419 85.1731 152.46 85.364 152.46C85.4754 152.463 85.5866 152.448 85.693 152.415C85.7725 152.39 85.8445 152.345 85.9024 152.285C85.9595 152.227 86.0066 152.16 86.042 152.086L86.1616 151.807L86.2464 151.582L84.5464 147.714H85.8326L86.8296 150.261L87.6821 147.714H88.9035L87.1786 152.201Z" fill="#093F68"/>
</svg>
